<svg xmlns="http://www.w3.org/2000/svg" width="142" height="44" viewBox="0 0 143.535 44.635"><path fill="#FFF" d="M5.162 27.812l6.55 9.91V27.72c0-.65.14-1.137.42-1.463.277-.324.654-.488 1.128-.488.49 0 .875.163 1.16.487.28.325.424.813.424 1.462v13.227c0 1.477-.61 2.215-1.836 2.215-.306 0-.58-.045-.826-.133-.244-.09-.475-.23-.688-.42-.213-.19-.413-.415-.596-.673-.186-.254-.367-.518-.55-.785l-6.392-9.795v9.854c0 .644-.148 1.13-.447 1.457-.3.33-.682.494-1.147.494-.48 0-.867-.166-1.158-.498s-.438-.816-.438-1.45V28.234c0-.55.063-.98.186-1.295.145-.346.386-.625.723-.844.336-.22.7-.328 1.09-.328.307 0 .567.05.785.15.22.098.41.232.574.4.165.168.333.387.506.654l.532.84zm21.933 9.75H20.97c.006.713.15 1.34.43 1.88.28.544.648.954 1.11 1.23s.976.414 1.532.414c.375 0 .717-.045 1.027-.133.31-.088.608-.227.9-.412.29-.187.558-.388.802-.603.244-.213.563-.506.95-.87.16-.14.392-.208.69-.208.32 0 .58.087.778.263.2.177.3.425.3.746 0 .282-.11.612-.333.99-.223.378-.557.743-1.004 1.09-.446.35-1.01.638-1.686.866-.678.23-1.455.346-2.334.346-2.013 0-3.576-.574-4.693-1.723-1.116-1.147-1.674-2.702-1.674-4.67 0-.926.138-1.784.412-2.575.275-.79.678-1.47 1.205-2.035.527-.566 1.178-1 1.95-1.303.77-.302 1.628-.453 2.57-.453 1.222 0 2.27.26 3.147.774.875.517 1.53 1.185 1.967 2.002.436.817.653 1.65.653 2.5 0 .788-.226 1.3-.677 1.532s-1.08.35-1.898.35zm-6.125-1.778h5.678c-.077-1.07-.366-1.87-.866-2.402-.5-.533-1.16-.798-1.98-.798-.778 0-1.42.27-1.92.81-.503.537-.806 1.335-.912 2.39zm12.984-3.406l2.043 6.997 1.856-6.505c.2-.68.347-1.145.442-1.395.095-.248.274-.484.54-.71s.624-.34 1.082-.34c.467 0 .832.112 1.096.34.265.226.45.47.557.733s.257.72.448 1.37l1.857 6.505 2.064-6.997c.136-.505.247-.87.332-1.097.084-.227.226-.425.424-.597s.484-.26.86-.26.698.133.975.39c.275.262.415.567.415.92 0 .32-.12.807-.356 1.456l-2.56 7.5c-.222.638-.395 1.096-.517 1.378-.122.283-.314.537-.578.758-.265.222-.626.333-1.084.333-.475 0-.848-.12-1.117-.357-.27-.236-.474-.527-.604-.87-.13-.347-.272-.792-.426-1.345l-1.79-6.102-1.73 6.102c-.23.85-.48 1.49-.746 1.923s-.737.65-1.41.65c-.346 0-.637-.07-.88-.203-.238-.135-.44-.325-.6-.572-.16-.25-.303-.544-.425-.884-.123-.34-.218-.61-.287-.81l-2.535-7.5c-.25-.704-.378-1.19-.378-1.458 0-.336.135-.64.4-.905s.598-.402.988-.402c.52 0 .87.147 1.055.44.187.298.383.8.59 1.513zm27.232 6.687c0 .862-.21 1.604-.632 2.22s-1.043 1.08-1.863 1.397c-.82.317-1.82.48-3 .48-1.122 0-2.086-.175-2.89-.52-.804-.344-1.396-.772-1.777-1.29-.384-.517-.574-1.035-.574-1.554 0-.345.122-.64.367-.883.242-.245.554-.37.93-.37.328 0 .58.082.756.243.177.16.345.387.505.678.32.558.706.974 1.153 1.25s1.058.413 1.83.413c.628 0 1.143-.142 1.543-.42s.603-.6.603-.958c0-.55-.21-.952-.625-1.205-.416-.252-1.103-.493-2.058-.722-1.08-.27-1.956-.55-2.634-.843-.677-.295-1.218-.685-1.622-1.166-.406-.48-.608-1.073-.608-1.777 0-.628.188-1.222.563-1.778.376-.56.928-1.005 1.657-1.336.73-.334 1.61-.5 2.645-.5.81 0 1.54.085 2.186.252.646.17 1.186.395 1.617.678.433.283.76.597.986.94.228.343.34.68.34 1.01 0 .36-.12.653-.36.884-.24.23-.584.344-1.026.344-.32 0-.596-.092-.82-.274-.226-.185-.484-.46-.774-.825-.236-.308-.517-.552-.837-.734-.32-.183-.757-.273-1.308-.273-.565 0-1.037.12-1.41.36-.376.24-.564.54-.564.9 0 .33.14.598.413.81.275.21.646.385 1.113.52.466.142 1.108.308 1.927.507.972.237 1.766.52 2.38.85.615.328 1.083.717 1.4 1.164.314.443.473.954.473 1.527z"/><path fill="#F69220" d="M86.434 41.394c-.758.59-1.49 1.03-2.197 1.324s-1.502.442-2.38.442c-.804 0-1.51-.16-2.116-.478-.608-.316-1.075-.748-1.405-1.29-.328-.544-.492-1.133-.492-1.767 0-.857.27-1.587.814-2.19.543-.605 1.29-1.01 2.238-1.217.195-.046.69-.15 1.48-.31.786-.16 1.462-.31 2.022-.442.563-.133 1.172-.295 1.83-.487-.037-.825-.203-1.433-.498-1.818s-.905-.58-1.83-.58c-.796 0-1.396.11-1.796.334-.402.22-.746.554-1.033.998-.286.442-.487.735-.606.877s-.373.213-.764.213c-.352 0-.656-.11-.91-.338-.258-.225-.385-.516-.385-.867 0-.55.193-1.085.584-1.605.39-.52.997-.947 1.823-1.283.826-.338 1.854-.506 3.086-.506 1.374 0 2.458.162 3.245.488.787.324 1.344.838 1.67 1.543.324.7.486 1.637.486 2.8 0 .732 0 1.355-.005 1.87l-.018 1.707c0 .59.096 1.203.29 1.842.196.64.294 1.05.294 1.232 0 .32-.15.614-.452.877-.303.266-.645.397-1.027.397-.32 0-.636-.15-.95-.454-.313-.3-.645-.74-.996-1.312zm-.207-4.532c-.46.168-1.125.347-2.002.533-.877.188-1.48.325-1.818.414-.336.087-.656.26-.963.515-.307.257-.46.613-.46 1.072 0 .475.18.877.54 1.21.36.333.83.5 1.41.5.62 0 1.19-.137 1.717-.407.522-.27.907-.62 1.15-1.05.284-.476.427-1.255.427-2.34v-.448zm9.097-4.702v.378c.55-.73 1.152-1.26 1.807-1.602.655-.34 1.405-.51 2.255-.51.826 0 1.564.18 2.215.54.648.356 1.135.867 1.455 1.524.207.383.342.796.402 1.238.06.443.092 1.01.092 1.697v5.828c0 .627-.146 1.102-.43 1.422-.288.32-.66.482-1.12.482-.467 0-.846-.165-1.137-.494-.29-.328-.436-.8-.436-1.41v-5.22c0-1.032-.143-1.822-.43-2.37-.287-.545-.86-.818-1.717-.818-.56 0-1.066.165-1.523.498-.46.332-.797.79-1.012 1.37-.152.468-.23 1.34-.23 2.617v3.923c0 .635-.145 1.11-.438 1.428-.297.317-.678.48-1.143.48-.45 0-.822-.166-1.113-.495-.29-.328-.435-.8-.435-1.41v-9.05c0-.598.13-1.043.39-1.338s.616-.44 1.067-.44c.273 0 .52.064.744.195.223.13.398.325.533.584.136.26.204.58.204.953z"/><g fill="#F69220"><path d="M87.404 23.18c0 .017 0 .032.002.048v-.017l-.002-.03z"/><path d="M127.285 24.478l.22.002c.07-.71.108-1.432.108-2.164 0-11.867-9.95-21.49-21.824-21.49-8.663 0-16.124 5.127-19.526 12.512-2.006-.908-4.23-1.42-6.57-1.42-8.81 0-15.95 7.14-15.95 15.945l.024 13.508c0 .59.132 1.036.396 1.338.264.303.617.454 1.062.454.437 0 .797-.15 1.078-.454.282-.302.425-.747.425-1.337v-.308c.344.396.62.694.83.894.21.198.466.394.763.58.3.188.66.338 1.085.452.425.115.877.174 1.36.174.785 0 1.506-.16 2.16-.48.655-.315 1.21-.766 1.67-1.346.458-.582.81-1.27 1.05-2.06.24-.793.36-1.662.36-2.61 0-1.284-.216-2.395-.647-3.332s-1.038-1.65-1.823-2.146c-.783-.492-1.696-.74-2.736-.74-.9 0-1.657.164-2.27.488-.61.325-1.213.793-1.8 1.405l-.007-4.872c.214-6.91 6.008-12.47 12.97-12.47 1.96 0 3.82.44 5.483 1.23-.566 1.93-.88 3.972-.88 6.086 0 .283.024.944.026.973.023.492.273.924.654 1.188.252.176.555.278.885.278.33 0 .632-.104.884-.278.395-.275.656-.73.662-1.25-.002-.016-.027-.62-.027-.91 0-1.496.185-2.953.522-4.35.26-1.066.61-2.097 1.05-3.084 2.86-6.457 9.33-10.978 16.837-10.978 10.153 0 18.743 8.26 18.743 18.41 0 .853-.064 1.688-.178 2.508-1.492.32-3.188.858-4.523 1.574-.057.03-.244.13-.277.15v.003c-.404.28-.67.744-.67 1.272 0 .526.266.993.67 1.27.25.174.55.274.877.274.316 0 .613-.097.86-.26.61-.343 1.253-.63 1.925-.862 1.08-.378 2.227-.61 3.418-.674.213-.012.432-.016.648-.016 6.69 0 12.146 5.33 12.38 11.97-.017.12-.034.24-.077.355-.01.02-.02.045-.033.066-.03.074-.08.142-.123.21-.262.347-.658.58-1.12.61h-20.923c-.1-.17-3.594-5.676-3.594-5.676l1.662-1.523c.848-.767 1.273-1.38 1.273-1.836 0-.375-.13-.688-.393-.937-.26-.247-.584-.372-.975-.372-.328 0-.607.085-.836.253-.23.17-4.52 4.636-4.52 4.636V23.27c0-.646-.142-1.13-.425-1.458s-.667-.494-1.15-.494c-.493 0-.878.184-1.145.545-.266.365-.4.895-.4 1.59v17.8c0 .628.14 1.103.412 1.423.275.32.654.482 1.137.482.412 0 .78-.163 1.096-.488.316-.324.477-.79.477-1.395v-2.488l1.697-1.606 3.99 6.63h25.346c.72 0 1.32-.493 1.492-1.16.018-.09.238-1.866.238-2.687 0-8.553-6.93-15.484-15.483-15.485zM67.277 34.666c.268-.615.635-1.086 1.102-1.41.465-.326.996-.487 1.594-.487.58 0 1.09.16 1.524.485s.772.786 1.01 1.383c.236.596.355 1.31.355 2.133 0 1.278-.285 2.26-.855 2.944-.568.684-1.25 1.025-2.035 1.025-.927 0-1.674-.335-2.242-1.005-.57-.668-.853-1.627-.853-2.873-.002-.85.13-1.58.4-2.196z"/></g><g fill="#F69220"><path d="M115.5 20.83c-.822-2.876-3.336-4.976-6.31-5.27-.065-.013-.128-.018-.192-.018-.03 0-.066 0-.098.003-.59.055-1.027.557-1.01 1.14 0 .023 0 .046.004.067.002.025.006.046.01.068.076.492.465.865.94.932.042.003.08.008.12.01 2.063.206 3.81 1.648 4.395 3.635.01.058.024.112.046.164.156.447.588.755 1.078.742.02-.003.043-.003.068-.003l.064-.013c.578-.087.994-.61.94-1.198-.005-.038-.01-.072-.017-.11-.01-.05-.024-.102-.04-.15z"/><path d="M120.41 20.478c-.004-.01-.004-.015-.006-.022-1.12-5.612-6.033-9.704-11.756-9.79-.008.002-.014 0-.02 0-.036 0-.073.002-.112.007-.643.058-1.117.627-1.06 1.272.054.58.526 1.022 1.093 1.06l.09.002c4.605.08 8.556 3.368 9.468 7.884l.02.09c.13.528.617.902 1.172.886l.068-.004.066-.01c.61-.093 1.05-.642.992-1.264-.004-.04-.008-.074-.016-.11z"/></g><circle fill="#FFF" cx="108.441" cy="22.878" r="1.557"/></svg>