<?xml version="1.0" encoding="utf-8"?>
<!-- Generator: Adobe Illustrator 14.0.0, SVG Export Plug-In . SVG Version: 6.00 Build 43363)  -->
<!DOCTYPE svg PUBLIC "-//W3C//DTD SVG 1.1//EN" "http://www.w3.org/Graphics/SVG/1.1/DTD/svg11.dtd">
<svg version="1.1" id="Layer_1" xmlns="http://www.w3.org/2000/svg" xmlns:xlink="http://www.w3.org/1999/xlink" x="0px" y="0px"
	 width="142px" height="43px" viewBox="0 0 143.535 44.635" enable-background="new 0 0 143.535 44.635"
	 xml:space="preserve">
<path fill="#070707" d="M5.162,27.812l6.55,9.91V27.72c0-0.65,0.141-1.137,0.42-1.463c0.277-0.324,0.654-0.488,1.128-0.488
	c0.49,0,0.875,0.164,1.16,0.487c0.28,0.325,0.425,0.813,0.425,1.462v13.227c0,1.478-0.61,2.216-1.837,2.216
	c-0.306,0-0.579-0.045-0.825-0.134c-0.244-0.09-0.476-0.229-0.688-0.42c-0.213-0.189-0.413-0.414-0.596-0.672
	c-0.187-0.254-0.367-0.519-0.55-0.785l-6.393-9.795v9.854c0,0.645-0.147,1.13-0.447,1.457c-0.3,0.33-0.682,0.494-1.146,0.494
	c-0.48,0-0.867-0.166-1.158-0.498s-0.438-0.816-0.438-1.45V28.233c0-0.549,0.063-0.979,0.186-1.295
	c0.146-0.346,0.386-0.625,0.723-0.844c0.337-0.22,0.7-0.328,1.091-0.328c0.307,0,0.566,0.051,0.784,0.15
	c0.221,0.098,0.41,0.232,0.574,0.4c0.165,0.168,0.333,0.387,0.506,0.654L5.162,27.812L5.162,27.812z M27.095,37.562H20.97
	c0.006,0.713,0.149,1.34,0.43,1.881c0.28,0.543,0.647,0.953,1.109,1.229c0.463,0.276,0.977,0.414,1.532,0.414
	c0.375,0,0.717-0.045,1.027-0.133c0.31-0.088,0.607-0.228,0.9-0.412c0.289-0.187,0.558-0.388,0.802-0.603
	c0.244-0.213,0.563-0.506,0.95-0.871c0.159-0.14,0.392-0.207,0.689-0.207c0.32,0,0.58,0.087,0.778,0.263
	c0.2,0.177,0.3,0.425,0.3,0.746c0,0.282-0.11,0.612-0.333,0.989c-0.223,0.379-0.557,0.744-1.004,1.091
	c-0.446,0.35-1.01,0.638-1.687,0.866c-0.678,0.229-1.454,0.346-2.334,0.346c-2.013,0-3.575-0.574-4.692-1.723
	c-1.116-1.147-1.674-2.703-1.674-4.67c0-0.927,0.138-1.785,0.411-2.576c0.275-0.789,0.679-1.469,1.205-2.034
	c0.527-0.566,1.179-1,1.95-1.304c0.771-0.302,1.628-0.453,2.57-0.453c1.222,0,2.27,0.261,3.146,0.774
	c0.875,0.517,1.53,1.185,1.968,2.002c0.436,0.817,0.652,1.65,0.652,2.5c0,0.788-0.226,1.3-0.677,1.532s-1.08,0.35-1.897,0.35
	L27.095,37.562z M20.97,35.784h5.678c-0.077-1.07-0.366-1.87-0.866-2.402c-0.5-0.533-1.16-0.798-1.98-0.798
	c-0.777,0-1.42,0.271-1.92,0.81C21.379,33.931,21.076,34.729,20.97,35.784z M33.954,32.378l2.043,6.997l1.856-6.505
	c0.2-0.68,0.347-1.145,0.441-1.395c0.096-0.248,0.274-0.484,0.54-0.711c0.267-0.226,0.624-0.34,1.082-0.34
	c0.467,0,0.832,0.112,1.097,0.34c0.265,0.227,0.449,0.471,0.557,0.733c0.106,0.263,0.257,0.72,0.448,1.37l1.856,6.505l2.064-6.997
	c0.136-0.505,0.247-0.87,0.332-1.098c0.084-0.227,0.226-0.424,0.424-0.596c0.198-0.173,0.484-0.261,0.86-0.261
	s0.697,0.134,0.975,0.39c0.275,0.263,0.415,0.567,0.415,0.92c0,0.32-0.12,0.808-0.356,1.457l-2.56,7.5
	c-0.222,0.638-0.396,1.096-0.517,1.377c-0.122,0.283-0.314,0.537-0.578,0.759c-0.266,0.222-0.626,0.333-1.084,0.333
	c-0.476,0-0.849-0.12-1.117-0.357c-0.271-0.236-0.475-0.527-0.604-0.869c-0.13-0.348-0.271-0.793-0.426-1.346l-1.79-6.102
	l-1.729,6.102c-0.23,0.85-0.48,1.49-0.746,1.923c-0.267,0.433-0.737,0.65-1.41,0.65c-0.346,0-0.637-0.07-0.88-0.203
	c-0.238-0.136-0.44-0.325-0.601-0.572c-0.159-0.25-0.303-0.544-0.425-0.884c-0.123-0.34-0.218-0.609-0.287-0.811l-2.535-7.5
	c-0.25-0.703-0.378-1.189-0.378-1.457c0-0.336,0.136-0.641,0.4-0.905s0.598-0.402,0.988-0.402c0.52,0,0.87,0.147,1.055,0.44
	C33.552,31.162,33.748,31.664,33.954,32.378L33.954,32.378z M61.186,39.065c0,0.861-0.21,1.604-0.632,2.22
	c-0.423,0.616-1.043,1.08-1.863,1.397c-0.82,0.316-1.82,0.479-3,0.479c-1.122,0-2.086-0.175-2.891-0.521
	c-0.804-0.344-1.396-0.771-1.776-1.289c-0.384-0.518-0.574-1.035-0.574-1.555c0-0.345,0.122-0.64,0.367-0.883
	c0.242-0.245,0.554-0.37,0.93-0.37c0.328,0,0.58,0.082,0.756,0.243c0.178,0.16,0.346,0.387,0.505,0.678
	c0.32,0.559,0.706,0.975,1.153,1.25c0.447,0.276,1.059,0.413,1.83,0.413c0.628,0,1.143-0.142,1.543-0.42s0.604-0.601,0.604-0.958
	c0-0.55-0.21-0.952-0.625-1.205c-0.416-0.252-1.104-0.493-2.059-0.722c-1.08-0.271-1.956-0.55-2.634-0.843
	c-0.677-0.295-1.218-0.686-1.622-1.166c-0.406-0.48-0.608-1.073-0.608-1.777c0-0.628,0.188-1.223,0.563-1.778
	c0.376-0.56,0.928-1.005,1.657-1.336c0.729-0.334,1.609-0.5,2.645-0.5c0.811,0,1.54,0.085,2.187,0.252
	c0.646,0.171,1.186,0.396,1.616,0.679c0.434,0.283,0.761,0.597,0.986,0.939c0.229,0.344,0.34,0.68,0.34,1.01
	c0,0.36-0.12,0.653-0.359,0.885c-0.24,0.229-0.584,0.344-1.026,0.344c-0.32,0-0.596-0.092-0.82-0.274
	c-0.226-0.185-0.483-0.46-0.773-0.825c-0.236-0.308-0.518-0.552-0.837-0.733c-0.32-0.183-0.758-0.273-1.309-0.273
	c-0.564,0-1.037,0.12-1.41,0.36c-0.376,0.24-0.563,0.54-0.563,0.9c0,0.33,0.14,0.598,0.413,0.81c0.274,0.21,0.646,0.385,1.113,0.521
	c0.466,0.142,1.107,0.308,1.927,0.506c0.972,0.237,1.766,0.521,2.38,0.851c0.615,0.328,1.083,0.717,1.399,1.164
	c0.314,0.442,0.474,0.954,0.474,1.526L61.186,39.065z"/>
<path fill="#F69220" d="M86.434,41.394c-0.759,0.59-1.49,1.03-2.197,1.324c-0.707,0.295-1.502,0.442-2.38,0.442
	c-0.804,0-1.51-0.16-2.116-0.478c-0.608-0.316-1.075-0.748-1.405-1.291c-0.328-0.543-0.491-1.133-0.491-1.767
	c0-0.856,0.27-1.587,0.813-2.19c0.543-0.604,1.29-1.01,2.238-1.217c0.194-0.046,0.689-0.15,1.479-0.31
	c0.786-0.16,1.462-0.31,2.022-0.442c0.563-0.133,1.172-0.295,1.83-0.486c-0.037-0.826-0.203-1.434-0.498-1.818
	s-0.905-0.58-1.83-0.58c-0.796,0-1.396,0.109-1.796,0.334c-0.402,0.22-0.746,0.554-1.033,0.998
	c-0.286,0.441-0.487,0.734-0.606,0.877c-0.118,0.143-0.373,0.213-0.764,0.213c-0.352,0-0.656-0.109-0.91-0.338
	c-0.258-0.225-0.385-0.516-0.385-0.867c0-0.55,0.193-1.085,0.584-1.605c0.39-0.52,0.997-0.946,1.823-1.282
	c0.826-0.338,1.854-0.507,3.086-0.507c1.374,0,2.458,0.162,3.245,0.488c0.787,0.324,1.344,0.838,1.67,1.543
	c0.324,0.7,0.485,1.638,0.485,2.801c0,0.731,0,1.354-0.005,1.869l-0.018,1.707c0,0.59,0.096,1.203,0.29,1.842
	c0.196,0.641,0.294,1.051,0.294,1.232c0,0.32-0.15,0.614-0.452,0.877c-0.303,0.266-0.645,0.397-1.027,0.397
	c-0.319,0-0.636-0.15-0.949-0.454c-0.313-0.3-0.646-0.74-0.996-1.313H86.434z M86.227,36.862c-0.46,0.168-1.125,0.347-2.002,0.533
	c-0.877,0.188-1.48,0.324-1.818,0.414c-0.336,0.086-0.656,0.26-0.963,0.515c-0.307,0.257-0.46,0.612-0.46,1.071
	c0,0.476,0.18,0.877,0.54,1.211c0.359,0.332,0.83,0.5,1.41,0.5c0.62,0,1.189-0.138,1.717-0.407c0.521-0.271,0.907-0.62,1.149-1.05
	c0.284-0.477,0.428-1.256,0.428-2.34V36.86L86.227,36.862z M95.324,32.16v0.378c0.55-0.73,1.152-1.26,1.807-1.602
	c0.655-0.34,1.405-0.511,2.256-0.511c0.825,0,1.563,0.181,2.215,0.54c0.647,0.356,1.135,0.867,1.455,1.524
	c0.207,0.383,0.342,0.796,0.401,1.237c0.061,0.443,0.092,1.01,0.092,1.697v5.828c0,0.627-0.146,1.102-0.43,1.422
	c-0.288,0.32-0.66,0.482-1.12,0.482c-0.467,0-0.846-0.165-1.137-0.494c-0.29-0.328-0.437-0.801-0.437-1.41v-5.22
	c0-1.032-0.143-1.822-0.43-2.37c-0.287-0.545-0.859-0.818-1.717-0.818c-0.56,0-1.066,0.165-1.523,0.498
	c-0.46,0.332-0.797,0.79-1.012,1.37c-0.152,0.468-0.229,1.34-0.229,2.617v3.923c0,0.635-0.146,1.109-0.438,1.428
	c-0.297,0.317-0.678,0.48-1.143,0.48c-0.45,0-0.822-0.166-1.113-0.495c-0.29-0.328-0.436-0.8-0.436-1.41v-9.05
	c0-0.598,0.131-1.043,0.391-1.338s0.616-0.44,1.066-0.44c0.273,0,0.521,0.064,0.744,0.195c0.224,0.13,0.398,0.325,0.533,0.584
	C95.256,31.467,95.324,31.787,95.324,32.16z"/>
<g>
	<path fill="#F69220" d="M87.404,23.181c0,0.017,0,0.031,0.002,0.047v-0.017L87.404,23.181L87.404,23.181z"/>
	<path fill="#F69220" d="M127.285,24.478l0.22,0.002c0.07-0.709,0.108-1.432,0.108-2.164c0-11.867-9.95-21.49-21.824-21.49
		c-8.663,0-16.124,5.127-19.525,12.512c-2.007-0.908-4.23-1.42-6.57-1.42c-8.811,0-15.95,7.14-15.95,15.944l0.024,13.509
		c0,0.59,0.132,1.036,0.396,1.338c0.265,0.304,0.617,0.454,1.063,0.454c0.437,0,0.797-0.15,1.078-0.454
		c0.281-0.302,0.425-0.747,0.425-1.337v-0.309c0.344,0.396,0.62,0.694,0.83,0.895c0.21,0.198,0.466,0.395,0.763,0.58
		c0.3,0.188,0.66,0.338,1.085,0.452s0.877,0.174,1.36,0.174c0.784,0,1.506-0.16,2.159-0.479c0.655-0.315,1.211-0.767,1.671-1.347
		c0.458-0.582,0.81-1.271,1.05-2.06c0.24-0.793,0.359-1.662,0.359-2.61c0-1.284-0.216-2.396-0.646-3.332s-1.038-1.649-1.823-2.146
		c-0.783-0.492-1.696-0.74-2.736-0.74c-0.899,0-1.656,0.164-2.27,0.488c-0.61,0.324-1.213,0.793-1.8,1.404l-0.007-4.871
		c0.214-6.911,6.008-12.471,12.97-12.471c1.96,0,3.82,0.44,5.482,1.23c-0.565,1.93-0.88,3.972-0.88,6.086
		c0,0.283,0.024,0.944,0.026,0.973c0.023,0.492,0.273,0.924,0.654,1.188c0.252,0.176,0.555,0.278,0.885,0.278
		s0.632-0.104,0.884-0.278c0.396-0.274,0.656-0.729,0.662-1.25c-0.002-0.016-0.027-0.62-0.027-0.91c0-1.496,0.186-2.953,0.522-4.35
		c0.26-1.066,0.61-2.097,1.05-3.084c2.86-6.457,9.33-10.978,16.837-10.978c10.153,0,18.743,8.26,18.743,18.41
		c0,0.853-0.063,1.688-0.178,2.508c-1.492,0.319-3.188,0.858-4.523,1.573c-0.057,0.03-0.244,0.131-0.276,0.15v0.003
		c-0.404,0.28-0.671,0.744-0.671,1.272c0,0.525,0.267,0.992,0.671,1.27c0.25,0.174,0.55,0.274,0.877,0.274
		c0.315,0,0.612-0.097,0.859-0.261c0.61-0.342,1.253-0.629,1.925-0.861c1.08-0.378,2.228-0.61,3.418-0.674
		c0.214-0.012,0.433-0.016,0.648-0.016c6.69,0,12.146,5.329,12.38,11.969c-0.017,0.121-0.034,0.24-0.077,0.355
		c-0.01,0.02-0.02,0.045-0.032,0.066c-0.03,0.074-0.08,0.142-0.123,0.21c-0.263,0.347-0.658,0.579-1.12,0.61h-20.923
		c-0.101-0.17-3.595-5.677-3.595-5.677l1.662-1.522c0.849-0.768,1.273-1.381,1.273-1.836c0-0.375-0.13-0.688-0.394-0.938
		c-0.26-0.247-0.584-0.372-0.975-0.372c-0.328,0-0.607,0.085-0.836,0.253c-0.23,0.17-4.521,4.637-4.521,4.637V23.271
		c0-0.646-0.142-1.13-0.425-1.458s-0.667-0.494-1.149-0.494c-0.493,0-0.879,0.184-1.146,0.545c-0.266,0.365-0.4,0.895-0.4,1.59v17.8
		c0,0.628,0.141,1.104,0.412,1.423c0.275,0.32,0.654,0.482,1.138,0.482c0.412,0,0.779-0.163,1.096-0.488
		c0.316-0.323,0.477-0.79,0.477-1.396v-2.487l1.697-1.606l3.99,6.631h25.346c0.72,0,1.32-0.494,1.492-1.16
		c0.018-0.09,0.238-1.866,0.238-2.688c0-8.553-6.931-15.484-15.483-15.484V24.478z M67.277,34.666
		c0.268-0.615,0.635-1.086,1.102-1.41c0.465-0.325,0.996-0.487,1.595-0.487c0.58,0,1.09,0.16,1.523,0.485
		c0.435,0.325,0.772,0.786,1.01,1.384c0.236,0.596,0.355,1.31,0.355,2.133c0,1.277-0.285,2.26-0.855,2.943
		c-0.567,0.684-1.25,1.025-2.034,1.025c-0.928,0-1.675-0.336-2.242-1.006c-0.57-0.668-0.854-1.627-0.854-2.873
		C66.875,36.011,67.007,35.281,67.277,34.666L67.277,34.666z"/>
</g>
<g>
	<path fill="#F69220" d="M115.5,20.83c-0.821-2.876-3.336-4.976-6.31-5.27c-0.065-0.013-0.128-0.018-0.192-0.018
		c-0.03,0-0.065,0-0.098,0.003c-0.59,0.055-1.027,0.557-1.01,1.14c0,0.023,0,0.046,0.004,0.067c0.002,0.025,0.006,0.046,0.01,0.068
		c0.076,0.492,0.465,0.865,0.94,0.932c0.042,0.003,0.079,0.008,0.119,0.01c2.063,0.206,3.811,1.648,4.396,3.635
		c0.01,0.058,0.023,0.112,0.046,0.164c0.156,0.447,0.588,0.755,1.078,0.742c0.02-0.003,0.043-0.003,0.067-0.003l0.064-0.013
		c0.578-0.087,0.994-0.61,0.94-1.198c-0.006-0.038-0.011-0.072-0.018-0.11c-0.01-0.05-0.023-0.102-0.04-0.15L115.5,20.83z"/>
	<path fill="#F69220" d="M120.41,20.478c-0.004-0.01-0.004-0.015-0.006-0.022c-1.12-5.612-6.033-9.704-11.756-9.79
		c-0.008,0.002-0.015,0-0.021,0c-0.036,0-0.072,0.002-0.111,0.007c-0.644,0.058-1.117,0.627-1.061,1.272
		c0.055,0.58,0.526,1.022,1.093,1.06l0.091,0.002c4.604,0.08,8.556,3.368,9.468,7.884l0.02,0.09c0.13,0.528,0.617,0.902,1.172,0.886
		l0.068-0.004l0.066-0.01c0.609-0.093,1.05-0.642,0.991-1.264C120.421,20.549,120.417,20.515,120.41,20.478L120.41,20.478z"/>
</g>
<circle fill="#070707" cx="108.441" cy="22.878" r="1.557"/>
</svg>
